<svg xmlns="http://www.w3.org/2000/svg" xmlns:xlink="http://www.w3.org/1999/xlink" version="1.1" viewBox="0 0 1000 1000" xml:space="preserve">
<desc>Created with Fabric.js 3.5.0</desc>
<defs>
</defs>
<rect x="0" y="0" width="100%" height="100%" fill="rgba(71,151,106,0)"/>
<g transform="matrix(3.5897 0 0 3.5897 494.2247 485.8664)" id="331045">
<g style="" vector-effect="non-scaling-stroke">
		<g transform="matrix(1 0 0 1 0 0)" id="Spotify_1_">
<rect style="stroke: none; stroke-width: 1; stroke-dasharray: none; stroke-linecap: butt; stroke-dashoffset: 0; stroke-linejoin: miter; stroke-miterlimit: 4; is-custom-font: none; font-file-url: none; fill: none; fill-rule: evenodd; opacity: 1;" x="-64" y="-64" rx="0" ry="0" width="128" height="128"/>
</g>
		<g transform="matrix(1 0 0 1 0 0)" id="Spotify">
<path style="stroke: none; stroke-width: 1; stroke-dasharray: none; stroke-linecap: butt; stroke-dashoffset: 0; stroke-linejoin: miter; stroke-miterlimit: 4; is-custom-font: none; font-file-url: none; fill: rgb(255,255,255); fill-rule: evenodd; opacity: 1;" transform=" translate(-64, -64)" d="M 64 0 C 28.8 0 0 28.8 0 64 s 28.8 64 64 64 s 64 -28.8 64 -64 S 99.52 0 64 0 M 93.44 92.48 c -1.28 1.92 -3.52 2.56 -5.44 1.28 c -15.04 -9.28 -33.92 -11.2 -56.32 -6.08 c -2.24 0.64 -4.16 -0.96 -4.8 -2.88 c -0.64 -2.24 0.96 -4.16 2.88 -4.8 c 24.32 -5.44 45.44 -3.2 62.08 7.04 C 94.08 88 94.4 90.56 93.44 92.48 M 101.12 74.88 c -1.6 2.24 -4.48 3.2 -6.72 1.6 c -17.28 -10.56 -43.52 -13.76 -63.68 -7.36 c -2.56 0.64 -5.44 -0.64 -6.08 -3.2 c -0.64 -2.56 0.64 -5.44 3.2 -6.08 c 23.36 -7.04 52.16 -3.52 72 8.64 C 101.76 69.44 102.72 72.64 101.12 74.88 M 101.76 56.96 C 81.28 44.8 47.04 43.52 27.52 49.6 c -3.2 0.96 -6.4 -0.96 -7.36 -3.84 c -0.96 -3.2 0.96 -6.4 3.84 -7.36 c 22.72 -6.72 60.16 -5.44 83.84 8.64 c 2.88 1.6 3.84 5.44 2.24 8.32 C 108.48 57.6 104.64 58.56 101.76 56.96" stroke-linecap="round"/>
</g>
</g>
</g>
</svg>